<svg xmlns="http://www.w3.org/2000/svg" xmlns:xlink="http://www.w3.org/1999/xlink" xml:space="preserve" width="70" height="75" baseProfile="basic"><path id="path4578" style="fill:#2193c8;fill-opacity:0.99215698;stroke:none;stroke-width:0.182169" d="m 85.309152,135.70466 c -2.988209,0.66545 -5.383506,2.91277 -5.941163,6.01196 -0.426091,2.36712 -0.08467,5.06562 -0.08467,7.46898 v 14.93793 c 0,4.51326 -0.844676,10.00187 0.22558,14.39144 0.866214,3.55249 4.517952,6.06806 8.154234,5.5946 3.44885,-0.44904 6.700033,-3.09489 9.655011,-4.78908 6.323106,-3.62498 12.675386,-7.21891 18.945666,-10.93446 3.19416,-1.89293 6.65851,-3.57663 7.07331,-7.72372 0.47146,-4.71182 -2.95938,-6.92202 -6.52681,-9.03592 -6.93537,-4.10993 -13.96022,-8.07896 -20.949533,-12.0958 -0.162352,-0.0933 -0.326504,-0.19078 -0.491,-0.28963 v 6.99648 c 5.132473,2.98662 10.216453,6.08127 15.428933,8.91778 1.6612,0.90393 3.30129,1.86685 4.91858,2.84747 0.71957,0.43648 1.60762,0.95814 1.54241,1.93094 -0.0646,0.96403 -0.99717,1.39519 -1.72458,1.82384 -1.63424,0.96294 -3.26976,1.92389 -4.91858,2.86169 -5.66803,3.22442 -11.284699,6.53958 -16.941805,9.78274 -1.776698,1.0187 -4.666092,3.54365 -6.740284,3.61779 -2.516492,0.09 -1.63953,-5.04142 -1.63953,-6.60935 v -22.04258 c 0,-2.00897 -0.201313,-4.13782 0.01425,-6.13649 z" transform="matrix(0.73583793,0,0,0.73581421,-36.825029,-78.691589)" /><path style="fill:#2193c8;fill-opacity:0.992157;fill-rule:evenodd;stroke-width:0.0961411;stroke-linecap:round" d="M 32.616022,67.280374 C 20.100746,66.321634 9.2310554,57.200381 6.0909957,45.022013 5.3404583,42.111139 5.1204807,40.029629 5.2106061,36.691442 5.3408395,31.867684 6.2177586,28.333546 8.3282135,24.126936 11.146488,18.509483 15.518851,14.044499 21.080872,11.104134 c 1.46272,-0.773267 4.210067,-1.9312735 4.581909,-1.9312735 0.102908,0 0.159978,0.7699435 0.159978,2.1583205 0,1.709322 -0.0433,2.15832 -0.208158,2.15832 -0.443991,0 -4.258783,2.056185 -5.648861,3.044753 -1.738521,1.236369 -4.35964,3.798583 -5.622281,5.495931 -6.5450934,8.798463 -6.852695,20.75949 -0.767564,29.846581 3.808914,5.687953 9.716915,9.598171 16.574924,10.970135 1.482677,0.296613 2.249514,0.35239 4.8448,0.35239 2.595286,0 3.362123,-0.05578 4.8448,-0.35239 C 49.108666,60.992762 56.514553,54.52123 59.433858,45.725442 62.094643,37.70857 60.829576,29.327129 55.906591,22.356257 54.719497,20.675348 51.798577,17.770328 50.041404,16.522996 45.918669,13.596465 40.775257,11.869866 35.848319,11.7585 l -1.853908,-0.0419 -4.34e-4,-2.0426959 -4.35e-4,-2.0426958 h 1.456678 c 2.742805,0 6.345734,0.6328697 9.326733,1.6382798 1.672388,0.5640514 4.733921,2.0612119 6.296141,3.0789589 1.872162,1.219666 2.985255,2.094578 4.488986,3.528425 4.962701,4.732065 8.039713,10.737995 9.044744,17.654178 0.37885,2.607076 0.235822,7.243351 -0.302007,9.789523 -2.812891,13.316713 -13.646559,22.885857 -27.134724,23.967511 -2.160716,0.173275 -2.192274,0.173222 -4.554071,-0.0077 z" id="path1086" /></svg>
